# xmcd
#
# Track frame offsets:
#	150
#	14835
#	30200
#	42285
#	55470
#	70925
#	87192
#	98897
#	108142
#	122767
#	141885
#	160677
#	185447
#	197827
#	216197
#	228430
#	243685
#	262352
#	273010
#	283820
#	305565
#
# Disc length: 4214 seconds
#
# Revision: 1
# Processed by: cddbd v1.5.2PL0 Copyright (c) Steve Scherf et al.
# Submitted via: audiograbber 1.83.01
#
DISCID=37107415
DTITLE=Tompall Glaser - The Outlaw
DYEAR=1992
DGENRE=Country
TTITLE0=It Never Crossed My Mind
TTITLE1=The Bad Times 
TTITLE2=What Are We Doin' With The Rest Of Our Lives
TTITLE3=How I Love Them Old Songs
TTITLE4=On Second Thought
TTITLE5=Drinking Them Beers
TTITLE6=My Mother Was A Lady
TTITLE7=Duncan And Brady
TTITLE8=Easy On My Mind
TTITLE9=The Wonder Of It All
TTITLE10=Storms Never Last
TTITLE11=You Can Have Her
TTITLE12=Release Me
TTITLE13=Tennessee Blues
TTITLE14=Come Back Shane
TTITLE15=It'll Be Her
TTITLE16=It Ain't Fair Medley (Look What Thoughts Will Do - Pretty Words - It A
TTITLE16=in't Fair)
TTITLE17=Sweethearts Or Strangers
TTITLE18=Let My Fingers Do The Walking
TTITLE19=I Just Want To Hear The Music
TTITLE20=My Live Would Make A Damn Good Country Song
EXTD=
EXTT0=
EXTT1=
EXTT2=
EXTT3=
EXTT4=
EXTT5=
EXTT6=
EXTT7=
EXTT8=
EXTT9=
EXTT10=
EXTT11=
EXTT12=
EXTT13=
EXTT14=
EXTT15=
EXTT16=
EXTT17=
EXTT18=
EXTT19=
EXTT20=
PLAYORDER=
